PathFileType	4	(X/Y/Z)	./resultDataOpenSim/trcMotMarkerGrf/sub06/qtm-12-01.trc
DataRate	CameraRate	NumFrames	NumMarkers	Units	OrigDataRate	OrigDataStartFrame	OrigNumFrames
250.000000	250.000000	11	24	m	250.000000	368	490
Frame#	Time	L.Toe.Tip			R.Toe.Tip			L.Ankle.Lat			R.Ankle.Lat			L.Ankle.Med			R.Ankle.Med			L.Heel			R.Heel			L.Knee.Lat			R.Knee.Lat			L.Knee.Med			R.Knee.Med			L.Thigh.Upper			R.Thigh.Upper			L.ASIS			R.ASIS			V.Sacral			L.Acromium			R.Acromium			C7			L.Elbow			R.Elbow			L.Wrist.Lat			R.Wrist.Lat
		X1	Y1	Z1	X2	Y2	Z2	X3	Y3	Z3	X4	Y4	Z4	X5	Y5	Z5	X6	Y6	Z6	X7	Y7	Z7	X8	Y8	Z8	X9	Y9	Z9	X10	Y10	Z10	X11	Y11	Z11	X12	Y12	Z12	X13	Y13	Z13	X14	Y14	Z14	X15	Y15	Z15	X16	Y16	Z16	X17	Y17	Z17	X18	Y18	Z18	X19	Y19	Z19	X20	Y20	Z20	X21	Y21	Z21	X22	Y22	Z22	X23	Y23	Z23	X24	Y24	Z24

368	1.468	1.4735966	0.124031	-0.10858384	0.93888593	0.034884904	0.043062074	1.3453299	0.1140198	-0.12666192	0.81288331	0.095809228	0.07506755	1.3490383	0.12923506	-0.042561358	0.84142338	0.1161002	-0.0090548551	1.2900587	0.059764713	-0.080117886	0.75863041	0.09192449	0.014514545	1.2665074	0.47756913	-0.11753389	0.96347044	0.45698352	0.11860587	1.2414197	0.4658172	0.0037716649	0.94541697	0.45809146	-0.012915086	1.1060299	0.83619424	-0.15444548	1.0239953	0.8169901	0.18204235	1.1613534	0.8879896	-0.097028502	1.1290762	0.87630046	0.14882191	0.96051038	0.94326279	0.0064412177	1.0500379	1.3679325	-0.15385181	1.0619361	1.3504167	0.20180074	0.97601403	1.386242	0.028013895	0.93665841	1.0891703	-0.21566385	1.1492817	1.0390073	0.27662953	0.96782069	0.86192167	-0.30048231	1.3794806	1.100055	0.18825485
369	1.472	1.4880942	0.12845236	-0.10691718	0.93892779	0.034916907	0.043147628	1.3599692	0.11532331	-0.1250573	0.81339441	0.096436581	0.075078113	1.3628804	0.13019347	-0.0408272	0.84210812	0.11653943	-0.0090146076	1.305993	0.05976296	-0.078194675	0.75910585	0.092888637	0.01450395	1.2726234	0.47597047	-0.11650412	0.96657158	0.45659264	0.11876678	1.2473446	0.4639764	0.0052342322	0.94899134	0.45768296	-0.012874592	1.1130575	0.83453594	-0.15436541	1.0284626	0.815862	0.18128011	1.1681181	0.88667639	-0.096637202	1.1343665	0.87501385	0.14911596	0.96717453	0.9419074	0.0059071941	1.0561389	1.3666168	-0.15410998	1.0675759	1.3493362	0.2014807	0.98183428	1.3850336	0.02762941	0.9410525	1.0888091	-0.21524623	1.1569827	1.0387263	0.27669304	0.96944852	0.86153973	-0.30109709	1.3857746	1.1024623	0.18681408
370	1.476	1.5019675	0.13264878	-0.10520036	0.93897426	0.034938285	0.043245356	1.3740565	0.11667851	-0.12337607	0.81392046	0.09708299	0.075123275	1.3760129	0.13120667	-0.039217933	0.84280134	0.11699151	-0.0089421275	1.3213008	0.059874972	-0.076141665	0.75958714	0.093871805	0.014541794	1.2788587	0.47442099	-0.11544222	0.96975037	0.45617545	0.11891262	1.2533066	0.46222844	0.006675792	0.95263485	0.45724821	-0.012819211	1.1200815	0.83284482	-0.15428489	1.0330894	0.81478276	0.1806366	1.1748996	0.88531837	-0.096250536	1.1397199	0.87365435	0.14941754	0.97340264	0.94057482	0.0051158783	1.0622821	1.3652592	-0.15439074	1.0732681	1.3482199	0.20112263	0.9876728	1.3837989	0.027228755	0.94546924	1.0883898	-0.21488382	1.1646172	1.0383729	0.276763	0.97128932	0.86112662	-0.30167998	1.3920009	1.1046846	0.18540161
371	1.48	1.5151863	0.13651799	-0.10342553	0.93902827	0.034945609	0.04337665	1.3875204	0.11802682	-0.12161064	0.81444249	0.097757316	0.075201268	1.3885089	0.13238268	-0.037691421	0.84349865	0.11745919	-0.0088375659	1.3358838	0.060052916	-0.074041971	0.76008654	0.094882185	0.014642368	1.2852295	0.4729496	-0.11435088	0.97300721	0.45573563	0.11904112	1.2593076	0.46059076	0.0080882255	0.95634486	0.45678135	-0.012744925	1.1270931	0.83113487	-0.15419069	1.037872	0.81375875	0.180139	1.1816925	0.88393505	-0.095871489	1.1451304	0.87226402	0.14970562	0.97924761	0.93924992	0.0040421128	1.0684726	1.3638672	-0.15469568	1.0790238	1.3470755	0.20072073	0.99352771	1.3825389	0.02681142	0.94991505	1.0879118	-0.21458752	1.1721721	1.0379517	0.27682761	0.9733397	0.86068315	-0.30223292	1.3981387	1.1067097	0.18395676
372	1.484	1.527743	0.14004511	-0.1016382	0.9390909	0.034946468	0.04351628	1.4003518	0.11931764	-0.1197839	0.81496652	0.098462997	0.075313052	1.4005821	0.13366298	-0.03610389	0.84420545	0.1179354	-0.0087061838	1.3497036	0.060296723	-0.072047559	0.76061352	0.095928327	0.014803986	1.2917634	0.47158081	-0.11323245	0.97636229	0.45526902	0.11916494	1.2653607	0.45906115	0.0094716009	0.96012295	0.45628066	-0.012655068	1.1340887	0.82941747	-0.15407333	1.0427691	0.81276221	0.17974919	1.1884936	0.88253254	-0.09549785	1.1505774	0.87089781	0.14994965	0.98483637	0.93792298	0.0027514521	1.0747105	1.3624453	-0.15503184	1.0848156	1.3459026	0.20029746	0.99939843	1.3812591	0.026375064	0.95440871	1.0873783	-0.21436121	1.179642	1.0374684	0.27687089	0.97559528	0.86020865	-0.30275505	1.4041385	1.1085193	0.18238571
373	1.488	1.5396555	0.14321374	-0.099842339	0.93916192	0.034954762	0.043569617	1.4125864	0.12050089	-0.11791693	0.81554469	0.099190195	0.0754695	1.4123896	0.13486	-0.034360988	0.8449323	0.11841891	-0.0085511101	1.3627947	0.060607548	-0.070204349	0.76116408	0.097018494	0.015018595	1.2984859	0.47033377	-0.11208718	0.97983917	0.45476459	0.11930541	1.2714555	0.45762523	0.010820615	0.96397535	0.45574794	-0.01255354	1.1410734	0.8276976	-0.15393004	1.0477348	0.8117654	0.17940819	1.1953011	0.8810879	-0.095115103	1.1560432	0.86957246	0.1501462	0.99035381	0.93660224	0.0014295316	1.0809902	1.3609951	-0.15540066	1.0905946	1.3446984	0.19988606	1.0052858	1.3799636	0.025917021	0.95896538	1.086799	-0.21420062	1.1870298	1.0369279	0.27688416	0.97805021	0.85970183	-0.30324515	1.4099826	1.1101079	0.18066678
374	1.492	1.5509939	0.14594691	-0.097971344	0.93923999	0.034976472	0.04349942	1.4242459	0.12152793	-0.11600646	0.81625757	0.09991044	0.075687421	1.4238704	0.1358725	-0.0324725	0.84568602	0.11892219	-0.0083691585	1.3752122	0.060932205	-0.068391499	0.76173103	0.098160216	0.01528045	1.3054098	0.46922137	-0.11091039	0.98344046	0.4542169	0.11947858	1.2775906	0.45627057	0.012128959	0.96790729	0.45518703	-0.012435613	1.1480602	0.82598047	-0.15377079	1.0527361	0.81075706	0.17907429	1.2021158	0.87957268	-0.094706487	1.1615235	0.86826848	0.15031545	0.99600838	0.93529574	0.00030404318	1.0873031	1.3595192	-0.15579361	1.0963406	1.3434661	0.19949949	1.0111915	1.3786563	0.0254377	0.96359417	1.0861846	-0.21409801	1.1943392	1.0363356	0.27687271	0.98070677	0.8591599	-0.30370914	1.4157407	1.1115168	0.1789475
375	1.496	1.5618876	0.14812506	-0.095895903	0.93932416	0.035003919	0.043398146	1.4353282	0.12235422	-0.1140387	0.81716057	0.10058716	0.075980862	1.4347906	0.13678312	-0.030505199	0.84647105	0.11945777	-0.0081549023	1.3869902	0.06117225	-0.066403088	0.76231993	0.099359541	0.015584766	1.3125295	0.46824516	-0.10968395	0.98715383	0.45362751	0.11968477	1.283792	0.4549915	0.013397984	0.97192004	0.45460342	-0.012292292	1.1550619	0.82427931	-0.15360993	1.0577615	0.80973946	0.17873229	1.2089377	0.87799367	-0.094274575	1.1670261	0.86696432	0.15047568	1.0018806	0.93400196	-0.00055016017	1.0936399	1.358024	-0.15620242	1.1020738	1.3422128	0.19912862	1.0171191	1.3773447	0.024942304	0.96830456	1.0855386	-0.21404575	1.2015678	1.0356955	0.27684709	0.98357524	0.85857874	-0.30415449	1.4215182	1.1128054	0.17744016
376	1.5	1.5724452	0.14967627	-0.093526291	0.93941361	0.035029182	0.043360604	1.4458238	0.12293612	-0.11201461	0.8182446	0.10119188	0.076354831	1.4449697	0.13767687	-0.028517947	0.84729103	0.12002707	-0.007907664	1.3981333	0.061244616	-0.064089275	0.76294837	0.10061867	0.015919675	1.3198176	0.4673905	-0.10839234	0.99097319	0.45300044	0.11991406	1.2900699	0.45378766	0.014630892	0.97601561	0.45400308	-0.012121046	1.1620792	0.82261528	-0.15345023	1.0628181	0.80871694	0.17838459	1.2157636	0.87638436	-0.093838446	1.1725666	0.86564975	0.15063362	1.0078987	0.93272152	-0.0012285217	1.0999948	1.3565166	-0.15662691	1.1078189	1.3409448	0.19876024	1.023073	1.3760314	0.024435143	0.97310697	1.0848568	-0.21403908	1.2087091	1.0350085	0.27681321	0.98665896	0.85795478	-0.30458009	1.4273505	1.113989	0.17621571
377	1.504	1.5826221	0.15065764	-0.090997309	0.93950614	0.035051726	0.043390333	1.4557298	0.12323473	-0.10996077	0.81939995	0.10174569	0.076776724	1.4544339	0.1384541	-0.026532437	0.84814279	0.12063111	-0.0076343929	1.40862	0.061117783	-0.061477485	0.76363294	0.10193548	0.016262615	1.3272244	0.46662879	-0.10705623	0.99489401	0.45234103	0.12016016	1.2964079	0.45266981	0.01582487	0.980201	0.45339018	-0.011923454	1.1691002	0.82101111	-0.15329217	1.0679161	0.80768982	0.17803656	1.2225887	0.87476438	-0.09341072	1.1781627	0.86432348	0.15078805	1.0139652	0.9314603	-0.0018463849	1.106368	1.3550029	-0.1570725	1.1135753	1.3396668	0.19838608	1.0290558	1.3747115	0.023911164	0.97800846	1.0841358	-0.21407439	1.2157522	1.034275	0.27677264	0.98994969	0.85728685	-0.30498092	1.4331994	1.1150392	0.17519317
378	1.508	1.5922179	0.1511927	-0.088586201	0.93960028	0.035071837	0.043450793	1.4650692	0.12322775	-0.10791982	0.820381	0.1023636	0.077145376	1.4633264	0.13890865	-0.024546199	0.84901544	0.12128285	-0.0073490852	1.4183987	0.060807127	-0.058820776	0.76438771	0.10330398	0.0165872	1.3346904	0.46592685	-0.10572155	0.99891648	0.45165483	0.12042102	1.3028113	0.45166236	0.016977351	0.98448712	0.45276429	-0.011698712	1.1761124	0.81948306	-0.15315087	1.0730596	0.80665941	0.17768614	1.2294102	0.87313466	-0.092991987	1.1838234	0.86298687	0.15093426	1.0200384	0.93022114	-0.0024565601	1.1127611	1.3534886	-0.1575422	1.1193283	1.3383833	0.19800231	1.0350684	1.3733843	0.023362044	0.98301233	1.0833786	-0.21414372	1.2226814	1.0334943	0.27672345	0.99344045	0.85657929	-0.30535636	1.4390261	1.1159254	0.17427583
